<svg id="my-svg" width="100%" xmlns="http://www.w3.org/2000/svg" xmlns:xlink="http://www.w3.org/1999/xlink" class="flowchart" style="max-width: 1222.72px; background-color: white;" viewBox="4 4 1222.7242431640625 1634" role="graphics-document document" aria-roledescription="flowchart-v2"><style>#my-svg{font-family:"trebuchet ms",verdana,arial,sans-serif;font-size:16px;fill:#333;}@keyframes edge-animation-frame{from{stroke-dashoffset:0;}}@keyframes dash{to{stroke-dashoffset:0;}}#my-svg .edge-animation-slow{stroke-dasharray:9,5!important;stroke-dashoffset:900;animation:dash 50s linear infinite;stroke-linecap:round;}#my-svg .edge-animation-fast{stroke-dasharray:9,5!important;stroke-dashoffset:900;animation:dash 20s linear infinite;stroke-linecap:round;}#my-svg .error-icon{fill:#552222;}#my-svg .error-text{fill:#552222;stroke:#552222;}#my-svg .edge-thickness-normal{stroke-width:1px;}#my-svg .edge-thickness-thick{stroke-width:3.5px;}#my-svg .edge-pattern-solid{stroke-dasharray:0;}#my-svg .edge-thickness-invisible{stroke-width:0;fill:none;}#my-svg .edge-pattern-dashed{stroke-dasharray:3;}#my-svg .edge-pattern-dotted{stroke-dasharray:2;}#my-svg .marker{fill:#333333;stroke:#333333;}#my-svg .marker.cross{stroke:#333333;}#my-svg svg{font-family:"trebuchet ms",verdana,arial,sans-serif;font-size:16px;}#my-svg p{margin:0;}#my-svg .label{font-family:"trebuchet ms",verdana,arial,sans-serif;color:#333;}#my-svg .cluster-label text{fill:#333;}#my-svg .cluster-label span{color:#333;}#my-svg .cluster-label span p{background-color:transparent;}#my-svg .label text,#my-svg span{fill:#333;color:#333;}#my-svg .node rect,#my-svg .node circle,#my-svg .node ellipse,#my-svg .node polygon,#my-svg .node path{fill:#ECECFF;stroke:#9370DB;stroke-width:1px;}#my-svg .rough-node .label text,#my-svg .node .label text,#my-svg .image-shape .label,#my-svg .icon-shape .label{text-anchor:middle;}#my-svg .node .katex path{fill:#000;stroke:#000;stroke-width:1px;}#my-svg .rough-node .label,#my-svg .node .label,#my-svg .image-shape .label,#my-svg .icon-shape .label{text-align:center;}#my-svg .node.clickable{cursor:pointer;}#my-svg .root .anchor path{fill:#333333!important;stroke-width:0;stroke:#333333;}#my-svg .arrowheadPath{fill:#333333;}#my-svg .edgePath .path{stroke:#333333;stroke-width:2.0px;}#my-svg .flowchart-link{stroke:#333333;fill:none;}#my-svg .edgeLabel{background-color:rgba(232,232,232, 0.8);text-align:center;}#my-svg .edgeLabel p{background-color:rgba(232,232,232, 0.8);}#my-svg .edgeLabel rect{opacity:0.5;background-color:rgba(232,232,232, 0.8);fill:rgba(232,232,232, 0.8);}#my-svg .labelBkg{background-color:rgba(232, 232, 232, 0.5);}#my-svg .cluster rect{fill:#ffffde;stroke:#aaaa33;stroke-width:1px;}#my-svg .cluster text{fill:#333;}#my-svg .cluster span{color:#333;}#my-svg div.mermaidTooltip{position:absolute;text-align:center;max-width:200px;padding:2px;font-family:"trebuchet ms",verdana,arial,sans-serif;font-size:12px;background:hsl(80, 100%, 96.2745098039%);border:1px solid #aaaa33;border-radius:2px;pointer-events:none;z-index:100;}#my-svg .flowchartTitleText{text-anchor:middle;font-size:18px;fill:#333;}#my-svg rect.text{fill:none;stroke-width:0;}#my-svg .icon-shape,#my-svg .image-shape{background-color:rgba(232,232,232, 0.8);text-align:center;}#my-svg .icon-shape p,#my-svg .image-shape p{background-color:rgba(232,232,232, 0.8);padding:2px;}#my-svg .icon-shape rect,#my-svg .image-shape rect{opacity:0.5;background-color:rgba(232,232,232, 0.8);fill:rgba(232,232,232, 0.8);}#my-svg .label-icon{display:inline-block;height:1em;overflow:visible;vertical-align:-0.125em;}#my-svg .node .label-icon path{fill:currentColor;stroke:revert;stroke-width:revert;}#my-svg :root{--mermaid-font-family:"trebuchet ms",verdana,arial,sans-serif;}</style><g><marker id="my-svg_flowchart-v2-pointEnd" class="marker flowchart-v2" viewBox="0 0 10 10" refX="5" refY="5" markerUnits="userSpaceOnUse" markerWidth="8" markerHeight="8" orient="auto"><path d="M 0 0 L 10 5 L 0 10 z" class="arrowMarkerPath" style="stroke-width: 1; stroke-dasharray: 1, 0;"/></marker><marker id="my-svg_flowchart-v2-pointStart" class="marker flowchart-v2" viewBox="0 0 10 10" refX="4.5" refY="5" markerUnits="userSpaceOnUse" markerWidth="8" markerHeight="8" orient="auto"><path d="M 0 5 L 10 10 L 10 0 z" class="arrowMarkerPath" style="stroke-width: 1; stroke-dasharray: 1, 0;"/></marker><marker id="my-svg_flowchart-v2-circleEnd" class="marker flowchart-v2" viewBox="0 0 10 10" refX="11" refY="5" markerUnits="userSpaceOnUse" markerWidth="11" markerHeight="11" orient="auto"><circle cx="5" cy="5" r="5" class="arrowMarkerPath" style="stroke-width: 1; stroke-dasharray: 1, 0;"/></marker><marker id="my-svg_flowchart-v2-circleStart" class="marker flowchart-v2" viewBox="0 0 10 10" refX="-1" refY="5" markerUnits="userSpaceOnUse" markerWidth="11" markerHeight="11" orient="auto"><circle cx="5" cy="5" r="5" class="arrowMarkerPath" style="stroke-width: 1; stroke-dasharray: 1, 0;"/></marker><marker id="my-svg_flowchart-v2-crossEnd" class="marker cross flowchart-v2" viewBox="0 0 11 11" refX="12" refY="5.2" markerUnits="userSpaceOnUse" markerWidth="11" markerHeight="11" orient="auto"><path d="M 1,1 l 9,9 M 10,1 l -9,9" class="arrowMarkerPath" style="stroke-width: 2; stroke-dasharray: 1, 0;"/></marker><marker id="my-svg_flowchart-v2-crossStart" class="marker cross flowchart-v2" viewBox="0 0 11 11" refX="-1" refY="5.2" markerUnits="userSpaceOnUse" markerWidth="11" markerHeight="11" orient="auto"><path d="M 1,1 l 9,9 M 10,1 l -9,9" class="arrowMarkerPath" style="stroke-width: 2; stroke-dasharray: 1, 0;"/></marker></g><g class="subgraphs"><g class="subgraph"><g class="cluster" id="Server" data-look="classic"><rect style="" x="12" y="932.5" width="1206.72421875" height="697.5"/><g class="cluster-label" transform="translate(565.119921875, 932.5)"><foreignObject width="100.484375" height="24"><div xmlns="http://www.w3.org/1999/xhtml" style="display: table-cell; white-space: nowrap; line-height: 1.5; max-width: 200px; text-align: center;"><span class="nodeLabel"><p>Server (Linux)</p></span></div></foreignObject></g></g></g><g class="subgraph"><g class="cluster" id="Browser" data-look="classic"><rect style="" x="518.515625" y="12" width="646.3385416666667" height="739.5"/><g class="cluster-label" transform="translate(784.3411458333334, 12)"><foreignObject width="114.6875" height="24"><div xmlns="http://www.w3.org/1999/xhtml" style="display: table-cell; white-space: nowrap; line-height: 1.5; max-width: 200px; text-align: center;"><span class="nodeLabel"><p>Client (Browser)</p></span></div></foreignObject></g></g></g><g class="subgraph"><g class="cluster" id="OSMO" data-look="classic"><rect style="" x="413.31796875" y="1483" width="793.40625" height="135"/><g class="cluster-label" transform="translate(717.10703125, 1483)"><foreignObject width="185.828125" height="24"><div xmlns="http://www.w3.org/1999/xhtml" style="display: table-cell; white-space: nowrap; line-height: 1.5; max-width: 200px; text-align: center;"><span class="nodeLabel"><p>Native Osmocom services</p></span></div></foreignObject></g></g></g><g class="subgraph"><g class="cluster" id="OSMOWEB_BE" data-look="classic"><rect style="" x="253.578125" y="979" width="789.390625" height="315"/><g class="cluster-label" transform="translate(566.0390625, 979)"><foreignObject width="164.46875" height="48"><div xmlns="http://www.w3.org/1999/xhtml" style="display: table-cell; white-space: nowrap; line-height: 1.5; max-width: 200px; text-align: center;"><span class="nodeLabel"><p>osmoweb backend<br />(NestJS microservices)</p></span></div></foreignObject></g></g></g><g class="subgraph"><g class="cluster" id="WSDR_BE" data-look="classic"><rect style="" x="24" y="979" width="199.578125" height="213"/><g class="cluster-label" transform="translate(41.5546875, 979)"><foreignObject width="164.46875" height="48"><div xmlns="http://www.w3.org/1999/xhtml" style="display: table-cell; white-space: nowrap; line-height: 1.5; max-width: 200px; text-align: center;"><span class="nodeLabel"><p>websdr backend<br />(NestJS microservices)</p></span></div></foreignObject></g></g></g><g class="subgraph"><g class="cluster" id="OSMOWEB_FE" data-look="classic"><rect style="" x="546.515625" y="471" width="606.3385416666667" height="261"/><g class="cluster-label" transform="translate(758.9895833333334, 471)"><foreignObject width="181.390625" height="24"><div xmlns="http://www.w3.org/1999/xhtml" style="display: table-cell; white-space: nowrap; line-height: 1.5; max-width: 200px; text-align: center;"><span class="nodeLabel"><p>osmoweb (osmo-specific)</p></span></div></foreignObject></g></g></g><g class="subgraph"><g class="cluster" id="WSDR" data-look="classic"><rect style="" x="677.3697916666667" y="51" width="275.8541666666667" height="375"/><g class="cluster-label" transform="translate(757.4921875000001, 51)"><foreignObject width="115.609375" height="24"><div xmlns="http://www.w3.org/1999/xhtml" style="display: table-cell; white-space: nowrap; line-height: 1.5; max-width: 200px; text-align: center;"><span class="nodeLabel"><p>websdr (shared)</p></span></div></foreignObject></g></g></g></g><g class="nodes"><g class="node default" id="flowchart-STP-23" transform="translate(488.21640625, 1579)"><rect class="basic label-container" style="" x="-62.8984375" y="-27" width="125.796875" height="54"/><g class="label" style="" transform="translate(-32.8984375, -12)"><rect/><foreignObject width="65.796875" height="24"><div xmlns="http://www.w3.org/1999/xhtml" style="display: table-cell; white-space: nowrap; line-height: 1.5; max-width: 200px; text-align: center;"><span class="nodeLabel"><p>osmo-stp</p></span></div></foreignObject></g></g><g class="node default" id="flowchart-HLR-24" transform="translate(965.37265625, 1579)"><rect class="basic label-container" style="" x="-61.1171875" y="-27" width="122.234375" height="54"/><g class="label" style="" transform="translate(-31.1171875, -12)"><rect/><foreignObject width="62.234375" height="24"><div xmlns="http://www.w3.org/1999/xhtml" style="display: table-cell; white-space: nowrap; line-height: 1.5; max-width: 200px; text-align: center;"><span class="nodeLabel"><p>osmo-hlr</p></span></div></foreignObject></g></g><g class="node default" id="flowchart-MGW-25" transform="translate(1125.60703125, 1579)"><rect class="basic label-container" style="" x="-69.1171875" y="-27" width="138.234375" height="54"/><g class="label" style="" transform="translate(-39.1171875, -12)"><rect/><foreignObject width="78.234375" height="24"><div xmlns="http://www.w3.org/1999/xhtml" style="display: table-cell; white-space: nowrap; line-height: 1.5; max-width: 200px; text-align: center;"><span class="nodeLabel"><p>osmo-mgw</p></span></div></foreignObject></g></g><g class="node default" id="flowchart-MSC-26" transform="translate(807.36484375, 1579)"><rect class="basic label-container" style="" x="-66.890625" y="-27" width="133.78125" height="54"/><g class="label" style="" transform="translate(-36.890625, -12)"><rect/><foreignObject width="73.78125" height="24"><div xmlns="http://www.w3.org/1999/xhtml" style="display: table-cell; white-space: nowrap; line-height: 1.5; max-width: 200px; text-align: center;"><span class="nodeLabel"><p>osmo-msc</p></span></div></foreignObject></g></g><g class="node default" id="flowchart-BSC-27" transform="translate(645.79453125, 1579)"><rect class="basic label-container" style="" x="-64.6796875" y="-27" width="129.359375" height="54"/><g class="label" style="" transform="translate(-34.6796875, -12)"><rect/><foreignObject width="69.359375" height="24"><div xmlns="http://www.w3.org/1999/xhtml" style="display: table-cell; white-space: nowrap; line-height: 1.5; max-width: 200px; text-align: center;"><span class="nodeLabel"><p>osmo-bsc</p></span></div></foreignObject></g></g><g class="node default" id="flowchart-BTSAPI-16" transform="translate(654.0390625, 1081)"><rect class="basic label-container" style="" x="-102.9140625" y="-39" width="205.828125" height="78"/><g class="label" style="" transform="translate(-72.9140625, -24)"><rect/><foreignObject width="145.828125" height="48"><div xmlns="http://www.w3.org/1999/xhtml" style="display: table-cell; white-space: nowrap; line-height: 1.5; max-width: 200px; text-align: center;"><span class="nodeLabel"><p>BTS settings service<br />(REST API)</p></span></div></foreignObject></g></g><g class="node default" id="flowchart-RTS-17" transform="translate(908.9609375, 1081)"><rect class="basic label-container" style="" x="-122.0078125" y="-39" width="244.015625" height="78"/><g class="label" style="" transform="translate(-92.0078125, -24)"><rect/><foreignObject width="184.015625" height="48"><div xmlns="http://www.w3.org/1999/xhtml" style="display: table-cell; white-space: nowrap; line-height: 1.5; max-width: 200px; text-align: center;"><span class="nodeLabel"><p>Runtime transport service<br />(WebSocket ⇄ TCP/UDP)</p></span></div></foreignObject></g></g><g class="node default" id="flowchart-VTYCTL-18" transform="translate(654.0390625, 1243)"><rect class="basic label-container" style="" x="-120.25" y="-39" width="240.5" height="78"/><g class="label" style="" transform="translate(-90.25, -24)"><rect/><foreignObject width="180.5" height="48"><div xmlns="http://www.w3.org/1999/xhtml" style="display: table-cell; white-space: nowrap; line-height: 1.5; max-width: 200px; text-align: center;"><span class="nodeLabel"><p>Osmocom control service<br />(VTY)</p></span></div></foreignObject></g></g><g class="node default" id="flowchart-VTYSTAT-19" transform="translate(407.9921875, 1081)"><rect class="basic label-container" style="" x="-113.1328125" y="-39" width="226.265625" height="78"/><g class="label" style="" transform="translate(-83.1328125, -24)"><rect/><foreignObject width="166.265625" height="48"><div xmlns="http://www.w3.org/1999/xhtml" style="display: table-cell; white-space: nowrap; line-height: 1.5; max-width: 200px; text-align: center;"><span class="nodeLabel"><p>Osmocom stats service<br />(VTY)</p></span></div></foreignObject></g></g><g class="node default" id="flowchart-TSDBS-20" transform="translate(370.28125, 1243)"><rect class="basic label-container" style="" x="-104.703125" y="-39" width="209.40625" height="78"/><g class="label" style="" transform="translate(-74.703125, -24)"><rect/><foreignObject width="149.40625" height="48"><div xmlns="http://www.w3.org/1999/xhtml" style="display: table-cell; white-space: nowrap; line-height: 1.5; max-width: 200px; text-align: center;"><span class="nodeLabel"><p>Stats storage service<br />(planned: InfluxDB)</p></span></div></foreignObject></g></g><g class="node default" id="flowchart-UDB-14" transform="translate(123.7890625, 1153)"><rect class="basic label-container" style="" x="-87.7890625" y="-27" width="175.578125" height="54"/><g class="label" style="" transform="translate(-57.7890625, -12)"><rect/><foreignObject width="115.578125" height="24"><div xmlns="http://www.w3.org/1999/xhtml" style="display: table-cell; white-space: nowrap; line-height: 1.5; max-width: 200px; text-align: center;"><span class="nodeLabel"><p>User DB service</p></span></div></foreignObject></g></g><g class="node default" id="flowchart-AUTH-15" transform="translate(123.7890625, 1069)"><rect class="basic label-container" style="" x="-74.0234375" y="-27" width="148.046875" height="54"/><g class="label" style="" transform="translate(-44.0234375, -12)"><rect/><foreignObject width="88.046875" height="24"><div xmlns="http://www.w3.org/1999/xhtml" style="display: table-cell; white-space: nowrap; line-height: 1.5; max-width: 200px; text-align: center;"><span class="nodeLabel"><p>Auth service</p></span></div></foreignObject></g></g><g class="node default" id="flowchart-BTSUI-7" transform="translate(654.0390625, 681)"><rect class="basic label-container" style="" x="-95.5234375" y="-39" width="191.046875" height="78"/><g class="label" style="" transform="translate(-65.5234375, -24)"><rect/><foreignObject width="131.046875" height="48"><div xmlns="http://www.w3.org/1999/xhtml" style="display: table-cell; white-space: nowrap; line-height: 1.5; max-width: 200px; text-align: center;"><span class="nodeLabel"><p>BTS config panel<br />(Vue3 component)</p></span></div></foreignObject></g></g><g class="node default" id="flowchart-BTS-8" transform="translate(1010.8541666666667, 561)"><rect class="basic label-container" style="" x="-130" y="-51" width="260" height="102"/><g class="label" style="" transform="translate(-100, -36)"><rect/><foreignObject width="200" height="72"><div xmlns="http://www.w3.org/1999/xhtml" style="display: table; white-space: break-spaces; line-height: 1.5; max-width: 200px; text-align: center; width: 200px;"><span class="nodeLabel"><p>osmo-bts (WASM, modified)<br />WebSocket transport + JS API</p></span></div></foreignObject></g></g><g class="node default" id="flowchart-TRX-9" transform="translate(907.5, 681)"><rect class="basic label-container" style="" x="-127.9375" y="-39" width="255.875" height="78"/><g class="label" style="" transform="translate(-97.9375, -24)"><rect/><foreignObject width="195.875" height="48"><div xmlns="http://www.w3.org/1999/xhtml" style="display: table-cell; white-space: nowrap; line-height: 1.5; max-width: 200px; text-align: center;"><span class="nodeLabel"><p>osmo-trx (WASM, modified)<br />JS API</p></span></div></foreignObject></g></g><g class="node default" id="flowchart-SDR-0" transform="translate(777.6119791666667, 387)"><rect class="basic label-container" style="" x="-72.2421875" y="-27" width="144.484375" height="54"/><g class="label" style="" transform="translate(-42.2421875, -12)"><rect/><foreignObject width="84.484375" height="24"><div xmlns="http://www.w3.org/1999/xhtml" style="display: table-cell; white-space: nowrap; line-height: 1.5; max-width: 200px; text-align: center;"><span class="nodeLabel"><p>SDR device</p></span></div></foreignObject></g></g><g class="node default" id="flowchart-UI-1" transform="translate(793.4947916666667, 129)"><rect class="basic label-container" style="" x="-99.5234375" y="-39" width="199.046875" height="78"/><g class="label" style="" transform="translate(-69.5234375, -24)"><rect/><foreignObject width="139.046875" height="48"><div xmlns="http://www.w3.org/1999/xhtml" style="display: table-cell; white-space: nowrap; line-height: 1.5; max-width: 200px; text-align: center;"><span class="nodeLabel"><p>Shared UI<br />(Vue3 components)</p></span></div></foreignObject></g></g><g class="node default" id="flowchart-WCORE-2" transform="translate(826.6692708333335, 237)"><rect class="basic label-container" style="" x="-114.5546875" y="-39" width="229.109375" height="78"/><g class="label" style="" transform="translate(-84.5546875, -24)"><rect/><foreignObject width="169.109375" height="48"><div xmlns="http://www.w3.org/1999/xhtml" style="display: table-cell; white-space: nowrap; line-height: 1.5; max-width: 200px; text-align: center;"><span class="nodeLabel"><p>Shared frontend layer<br />(WebUSB + users/auth)</p></span></div></foreignObject></g></g></g><g class="edges edgePaths"><path d="M826.669,168L826.669,198" id="L_UI_WCORE_0_0" class="edge-thickness-normal edge-pattern-solid edge-thickness-normal edge-pattern-solid flowchart-link" style=";" data-edge="true" data-et="edge" data-id="L_UI_WCORE_0_0" data-points="W3sieCI6ODI2LjY2OTI3MDgzMzMzMzUsInkiOjE2OH0seyJ4Ijo4MjYuNjY5MjcwODMzMzMzNSwieSI6MTk4fV0="/><path d="M788.484,280L788.484,281C788.484,282,788.484,284,788.122,285.471C787.761,286.943,787.037,287.886,786.203,288.719C785.37,289.552,784.427,290.276,783.81,290.638C783.194,291,782.903,291,782.286,291.362C781.669,291.724,780.726,292.448,779.893,293.281C779.06,294.114,778.336,295.057,777.974,305.529C777.612,316,777.612,336,777.612,346L777.612,356" id="L_WCORE_SDR_0_0" class="edge-thickness-normal edge-pattern-solid edge-thickness-normal edge-pattern-solid flowchart-link" style=";" data-edge="true" data-et="edge" data-id="L_WCORE_SDR_0_0" data-points="W3sieCI6Nzg4LjQ4NDM3NTAwMDAwMDEsInkiOjI3Nn0seyJ4Ijo3ODguNDg0Mzc1MDAwMDAwMSwieSI6MjkxfSx7IngiOjc3Ny42MTE5NzkxNjY2NjY3LCJ5IjoyOTF9LHsieCI6Nzc3LjYxMTk3OTE2NjY2NjcsInkiOjM2MH1d" marker-start="url(#my-svg_flowchart-v2-pointStart)" marker-end="url(#my-svg_flowchart-v2-pointEnd)"/><path d="M967.521,616L967.521,617C967.521,618,967.521,620,967.159,621.471C966.797,622.943,966.073,623.886,965.24,624.719C964.406,625.552,963.464,626.276,961.763,626.638C960.063,627,957.604,627,955.904,627.362C954.203,627.724,953.26,628.448,952.427,629.281C951.594,630.114,950.87,631.057,950.508,632.529C950.146,634,950.146,636,950.146,637L950.146,638" id="L_BTS_TRX_0_0" class="edge-thickness-normal edge-pattern-solid edge-thickness-normal edge-pattern-solid flowchart-link" style=";" data-edge="true" data-et="edge" data-id="L_BTS_TRX_0_0" data-points="W3sieCI6OTY3LjUyMDgzMzMzMzMzMzQsInkiOjYxMn0seyJ4Ijo5NjcuNTIwODMzMzMzMzMzNCwieSI6NjI3fSx7IngiOjk1MC4xNDU4MzMzMzMzMzM0LCJ5Ijo2Mjd9LHsieCI6OTUwLjE0NTgzMzMzMzMzMzQsInkiOjY0Mn1d" marker-start="url(#my-svg_flowchart-v2-pointStart)" marker-end="url(#my-svg_flowchart-v2-pointEnd)"/><path d="M864.854,280L864.854,305.583C864.854,331.167,864.854,382.333,864.854,412.917C864.854,443.5,864.854,453.5,864.854,487.583C864.854,521.667,864.854,579.833,864.854,608.917L864.854,638" id="L_WCORE_TRX_0_0" class="edge-thickness-normal edge-pattern-solid edge-thickness-normal edge-pattern-solid flowchart-link" style=";" data-edge="true" data-et="edge" data-id="L_WCORE_TRX_0_0" data-points="W3sieCI6ODY0Ljg1NDE2NjY2NjY2NjcsInkiOjI3Nn0seyJ4Ijo4NjQuODU0MTY2NjY2NjY2NywieSI6NDMzLjV9LHsieCI6ODY0Ljg1NDE2NjY2NjY2NjcsInkiOjQ2My41fSx7IngiOjg2NC44NTQxNjY2NjY2NjY3LCJ5Ijo2NDJ9XQ==" marker-start="url(#my-svg_flowchart-v2-pointStart)" marker-end="url(#my-svg_flowchart-v2-pointEnd)"/><path d="M654.039,1124L654.039,1200" id="L_BTSAPI_VTYCTL_0_0" class="edge-thickness-normal edge-pattern-solid edge-thickness-normal edge-pattern-solid flowchart-link" style=";" data-edge="true" data-et="edge" data-id="L_BTSAPI_VTYCTL_0_0" data-points="W3sieCI6NjU0LjAzOTA2MjUsInkiOjExMjB9LHsieCI6NjU0LjAzOTA2MjUsInkiOjEyMDR9XQ==" marker-start="url(#my-svg_flowchart-v2-pointStart)" marker-end="url(#my-svg_flowchart-v2-pointEnd)"/><path d="M884.559,1124L884.559,1153.583C884.559,1183.167,884.559,1242.333,884.559,1281.083C884.559,1319.833,884.559,1338.167,884.197,1347.805C883.836,1357.443,883.112,1358.386,882.278,1359.219C881.445,1360.052,880.502,1360.776,847.293,1361.138C814.084,1361.5,748.609,1361.5,715.4,1361.862C682.192,1362.224,681.249,1362.948,680.415,1363.781C679.582,1364.614,678.858,1365.557,678.496,1384.195C678.134,1402.833,678.134,1439.167,678.134,1469.417C678.134,1499.667,678.134,1523.833,678.134,1535.917L678.134,1548" id="L_RTS_BSC_0_0" class="edge-thickness-normal edge-pattern-solid edge-thickness-normal edge-pattern-solid flowchart-link" style=";" data-edge="true" data-et="edge" data-id="L_RTS_BSC_0_0" data-points="W3sieCI6ODg0LjU1OTM3NSwieSI6MTEyMH0seyJ4Ijo4ODQuNTU5Mzc1LCJ5IjoxMzAxLjV9LHsieCI6ODg0LjU1OTM3NSwieSI6MTM2MS41fSx7IngiOjY3OC4xMzQzNzUsInkiOjEzNjEuNX0seyJ4Ijo2NzguMTM0Mzc1LCJ5IjoxNDc1LjV9LHsieCI6Njc4LjEzNDM3NSwieSI6MTU1Mn1d" marker-start="url(#my-svg_flowchart-v2-pointStart)" marker-end="url(#my-svg_flowchart-v2-pointEnd)"/><path d="M835.756,1124L835.756,1153.583C835.756,1183.167,835.756,1242.333,835.756,1278.583C835.756,1314.833,835.756,1328.167,835.394,1335.305C835.032,1342.443,834.309,1343.386,833.475,1344.219C832.642,1345.052,831.699,1345.776,782.463,1346.138C733.226,1346.5,635.696,1346.5,586.459,1346.862C537.223,1347.224,536.28,1347.948,535.447,1348.781C534.613,1349.614,533.889,1350.557,533.528,1363.362C533.166,1376.167,533.166,1400.833,533.528,1413.638C533.889,1426.443,534.613,1427.386,535.447,1428.219C536.28,1429.052,537.223,1429.776,554.799,1430.138C572.375,1430.5,606.585,1430.5,624.161,1430.862C641.737,1431.224,642.68,1431.948,643.513,1432.781C644.347,1433.614,645.071,1434.557,645.433,1441.695C645.795,1448.833,645.795,1462.167,645.795,1480.917C645.795,1499.667,645.795,1523.833,645.795,1535.917L645.795,1548" id="L_RTS_BSC_2_0" class="edge-thickness-normal edge-pattern-solid edge-thickness-normal edge-pattern-solid flowchart-link" style=";" data-edge="true" data-et="edge" data-id="L_RTS_BSC_2_0" data-points="W3sieCI6ODM1Ljc1NjI1LCJ5IjoxMTIwfSx7IngiOjgzNS43NTYyNSwieSI6MTMwMS41fSx7IngiOjgzNS43NTYyNSwieSI6MTM0Ni41fSx7IngiOjUzMy4xNjU2MjUsInkiOjEzNDYuNX0seyJ4Ijo1MzMuMTY1NjI1LCJ5IjoxNDMwLjV9LHsieCI6NjQ1Ljc5NDUzMTI1LCJ5IjoxNDMwLjV9LHsieCI6NjQ1Ljc5NDUzMTI1LCJ5IjoxNDc1LjV9LHsieCI6NjQ1Ljc5NDUzMTI1LCJ5IjoxNTUyfV0=" marker-start="url(#my-svg_flowchart-v2-pointStart)" marker-end="url(#my-svg_flowchart-v2-pointEnd)"/><path d="M933.363,1124L933.363,1153.583C933.362,1183.167,933.362,1242.333,933.363,1283.583C933.362,1324.833,933.362,1348.167,933.001,1360.305C932.639,1372.443,931.915,1373.386,931.081,1374.219C930.248,1375.052,929.305,1375.776,911.973,1376.138C894.641,1376.5,860.919,1376.5,843.586,1376.862C826.254,1377.224,825.311,1377.948,824.478,1378.781C823.645,1379.614,822.921,1380.557,822.559,1388.362C822.197,1396.167,822.197,1410.833,822.559,1418.638C822.921,1426.443,823.645,1427.386,824.478,1428.219C825.311,1429.052,826.254,1429.776,848.921,1430.138C871.589,1430.5,915.981,1430.5,938.648,1430.862C961.315,1431.224,962.258,1431.948,963.092,1432.781C963.925,1433.614,964.649,1434.557,965.011,1441.695C965.373,1448.833,965.373,1462.167,965.373,1480.917C965.373,1499.667,965.373,1523.833,965.373,1535.917L965.373,1548" id="L_RTS_HLR_0_0" class="edge-thickness-normal edge-pattern-solid edge-thickness-normal edge-pattern-solid flowchart-link" style=";" data-edge="true" data-et="edge" data-id="L_RTS_HLR_0_0" data-points="W3sieCI6OTMzLjM2MjUsInkiOjExMjB9LHsieCI6OTMzLjM2MjUsInkiOjEzMDEuNX0seyJ4Ijo5MzMuMzYyNSwieSI6MTM3Ni41fSx7IngiOjgyMi4xOTY4NzUsInkiOjEzNzYuNX0seyJ4Ijo4MjIuMTk2ODc1LCJ5IjoxNDMwLjV9LHsieCI6OTY1LjM3MjY1NjI1LCJ5IjoxNDMwLjV9LHsieCI6OTY1LjM3MjY1NjI1LCJ5IjoxNDc1LjV9LHsieCI6OTY1LjM3MjY1NjI1LCJ5IjoxNTUyfV0=" marker-start="url(#my-svg_flowchart-v2-pointStart)" marker-end="url(#my-svg_flowchart-v2-pointEnd)"/><path d="M982.166,1124L982.166,1153.583C982.166,1183.167,982.166,1242.333,982.166,1292.583C982.166,1342.833,982.166,1384.167,982.528,1405.305C982.889,1426.443,983.613,1427.386,984.447,1428.219C985.28,1429.052,986.223,1429.776,1008.934,1430.138C1031.646,1430.5,1076.127,1430.5,1098.838,1430.862C1121.55,1431.224,1122.493,1431.948,1123.326,1432.781C1124.159,1433.614,1124.883,1434.557,1125.245,1441.695C1125.607,1448.833,1125.607,1462.167,1125.607,1480.917C1125.607,1499.667,1125.607,1523.833,1125.607,1535.917L1125.607,1548" id="L_RTS_MGW_0_0" class="edge-thickness-normal edge-pattern-solid edge-thickness-normal edge-pattern-solid flowchart-link" style=";" data-edge="true" data-et="edge" data-id="L_RTS_MGW_0_0" data-points="W3sieCI6OTgyLjE2NTYyNSwieSI6MTEyMH0seyJ4Ijo5ODIuMTY1NjI1LCJ5IjoxMzAxLjV9LHsieCI6OTgyLjE2NTYyNSwieSI6MTQzMC41fSx7IngiOjExMjUuNjA3MDMxMjUsInkiOjE0MzAuNX0seyJ4IjoxMTI1LjYwNzAzMTI1LCJ5IjoxNDc1LjV9LHsieCI6MTEyNS42MDcwMzEyNSwieSI6MTU1Mn1d" marker-start="url(#my-svg_flowchart-v2-pointStart)" marker-end="url(#my-svg_flowchart-v2-pointEnd)"/><path d="M654.039,1286L654.039,1288.583C654.039,1291.167,654.039,1296.333,654.039,1303.083C654.039,1309.833,654.039,1318.167,653.677,1322.805C653.315,1327.443,652.591,1328.386,651.758,1329.219C650.925,1330.052,649.982,1330.776,609.685,1331.138C569.389,1331.5,489.738,1331.5,449.441,1331.862C409.145,1332.224,408.202,1332.948,407.369,1333.781C406.535,1334.614,405.811,1335.557,405.449,1353.362C405.087,1371.167,405.087,1405.833,405.449,1423.638C405.811,1441.443,406.535,1442.386,407.369,1443.219C408.202,1444.052,409.145,1444.776,445.567,1445.138C481.99,1445.5,553.892,1445.5,590.315,1445.862C626.737,1446.224,627.68,1446.948,628.513,1447.781C629.347,1448.614,630.071,1449.557,630.433,1454.195C630.795,1458.833,630.795,1467.167,630.795,1480.75C630.795,1494.333,630.795,1513.167,630.433,1523.055C630.071,1532.943,629.347,1533.886,628.513,1534.719C627.68,1535.552,626.737,1536.276,625.043,1536.638C623.348,1537,620.901,1537,619.207,1537.362C617.512,1537.724,616.569,1538.448,615.736,1539.281C614.902,1540.114,614.179,1541.057,613.817,1542.529C613.455,1544,613.455,1546,613.455,1547L613.455,1548" id="L_VTYCTL_BSC_0_0" class="edge-thickness-normal edge-pattern-solid edge-thickness-normal edge-pattern-solid flowchart-link" style=";" data-edge="true" data-et="edge" data-id="L_VTYCTL_BSC_0_0" data-points="W3sieCI6NjU0LjAzOTA2MjUsInkiOjEyODJ9LHsieCI6NjU0LjAzOTA2MjUsInkiOjEzMDEuNX0seyJ4Ijo2NTQuMDM5MDYyNSwieSI6MTMzMS41fSx7IngiOjQwNS4wODc1LCJ5IjoxMzMxLjV9LHsieCI6NDA1LjA4NzUsInkiOjE0NDUuNX0seyJ4Ijo2MzAuNzk0NTMxMjUsInkiOjE0NDUuNX0seyJ4Ijo2MzAuNzk0NTMxMjUsInkiOjE0NzUuNX0seyJ4Ijo2MzAuNzk0NTMxMjUsInkiOjE1Mzd9LHsieCI6NjEzLjQ1NDY4NzUsInkiOjE1Mzd9LHsieCI6NjEzLjQ1NDY4NzUsInkiOjE1NTJ9XQ==" marker-start="url(#my-svg_flowchart-v2-pointStart)" marker-end="url(#my-svg_flowchart-v2-pointEnd)"/><path d="M445.703,1124L445.703,1125C445.703,1126,445.703,1128,446.065,1129.471C446.427,1130.943,447.151,1131.886,447.984,1132.719C448.818,1133.552,449.76,1134.276,455.945,1134.638C462.13,1135,473.557,1135,479.742,1135.362C485.927,1135.724,486.87,1136.448,487.703,1137.281C488.537,1138.114,489.261,1139.057,489.622,1166.445C489.984,1193.833,489.984,1247.667,489.984,1276.25C489.984,1304.833,489.984,1308.167,489.622,1310.305C489.261,1312.443,488.537,1313.386,487.703,1314.219C486.87,1315.052,485.927,1315.776,456.293,1316.138C426.659,1316.5,368.334,1316.5,338.7,1316.862C309.067,1317.224,308.124,1317.948,307.29,1318.781C306.457,1319.614,305.733,1320.557,305.371,1343.362C305.009,1366.167,305.009,1410.833,305.371,1433.638C305.733,1456.443,306.457,1457.386,307.29,1458.219C308.124,1459.052,309.067,1459.776,359.669,1460.138C410.271,1460.5,510.533,1460.5,561.135,1460.862C611.737,1461.224,612.68,1461.948,613.513,1462.781C614.347,1463.614,615.071,1464.557,615.433,1467.279C615.795,1470,615.795,1474.5,615.795,1476.75L615.795,1479" id="L_VTYSTAT_OSMO_0_0" class="edge-thickness-normal edge-pattern-solid edge-thickness-normal edge-pattern-solid flowchart-link" style=";" data-edge="true" data-et="edge" data-id="L_VTYSTAT_OSMO_0_0" data-points="W3sieCI6NDQ1LjcwMzEyNSwieSI6MTEyMH0seyJ4Ijo0NDUuNzAzMTI1LCJ5IjoxMTM1fSx7IngiOjQ4OS45ODQzNzUsInkiOjExMzV9LHsieCI6NDg5Ljk4NDM3NSwieSI6MTMwMS41fSx7IngiOjQ4OS45ODQzNzUsInkiOjEzMTYuNX0seyJ4IjozMDUuMDA5Mzc1LCJ5IjoxMzE2LjV9LHsieCI6MzA1LjAwOTM3NSwieSI6MTQ2MC41fSx7IngiOjYxNS43OTQ1MzEyNSwieSI6MTQ2MC41fSx7IngiOjYxNS43OTQ1MzEyNSwieSI6MTQ4M31d" marker-start="url(#my-svg_flowchart-v2-pointStart)" marker-end="url(#my-svg_flowchart-v2-pointEnd)"/><path d="M370.281,1120L370.281,1200" id="L_VTYSTAT_TSDBS_0_0" class="edge-thickness-normal edge-pattern-solid edge-thickness-normal edge-pattern-solid flowchart-link" style=";" data-edge="true" data-et="edge" data-id="L_VTYSTAT_TSDBS_0_0" data-points="W3sieCI6MzcwLjI4MTI1LCJ5IjoxMTIwfSx7IngiOjM3MC4yODEyNSwieSI6MTIwNH1d" marker-end="url(#my-svg_flowchart-v2-pointEnd)"/><path d="M1054.188,616L1054.188,636.583C1054.188,657.167,1054.188,698.333,1054.188,722.167C1054.188,746,1054.188,752.5,1054.188,779.667C1054.188,806.833,1054.188,854.667,1053.826,879.055C1053.464,903.443,1052.74,904.386,1051.906,905.219C1051.073,906.052,1050.13,906.776,1027.121,907.138C1004.112,907.5,959.036,907.5,936.027,907.862C913.018,908.224,912.075,908.948,911.242,909.781C910.409,910.614,909.685,911.557,909.323,914.112C908.961,916.667,908.961,920.833,908.961,930.667C908.961,940.5,908.961,956,908.961,974.833C908.961,993.667,908.961,1015.833,908.961,1026.917L908.961,1038" id="L_BTS_RTS_0_0" class="edge-thickness-normal edge-pattern-solid edge-thickness-normal edge-pattern-solid flowchart-link" style=";" data-edge="true" data-et="edge" data-id="L_BTS_RTS_0_0" data-points="W3sieCI6MTA1NC4xODc1LCJ5Ijo2MTJ9LHsieCI6MTA1NC4xODc1LCJ5Ijo3MzkuNX0seyJ4IjoxMDU0LjE4NzUsInkiOjc1OX0seyJ4IjoxMDU0LjE4NzUsInkiOjkwNy41fSx7IngiOjkwOC45NjA5Mzc1LCJ5Ijo5MDcuNX0seyJ4Ijo5MDguOTYwOTM3NSwieSI6OTI1fSx7IngiOjkwOC45NjA5Mzc1LCJ5Ijo5NzEuNX0seyJ4Ijo5MDguOTYwOTM3NSwieSI6MTA0Mn1d" marker-start="url(#my-svg_flowchart-v2-pointStart)" marker-end="url(#my-svg_flowchart-v2-pointEnd)"/><path d="M760.32,172L760.32,173C760.32,174,760.32,176,759.958,177.471C759.596,178.943,758.873,179.886,758.039,180.719C757.206,181.552,756.263,182.276,745.633,182.638C735.003,183,714.687,183,704.057,183.362C693.427,183.724,692.484,184.448,691.651,185.281C690.818,186.114,690.094,187.057,689.732,228.445C689.37,269.833,689.37,351.667,689.37,394.25C689.37,436.833,689.37,440.167,689.008,442.305C688.646,444.443,687.922,445.386,687.089,446.219C686.255,447.052,685.313,447.776,660.032,448.138C634.752,448.5,585.134,448.5,559.853,448.862C534.573,449.224,533.63,449.948,532.797,450.781C531.963,451.614,531.239,452.557,530.878,503.945C530.516,555.333,530.516,657.167,530.516,732C530.516,806.833,530.516,854.667,530.154,879.055C529.792,903.443,529.068,904.386,528.235,905.219C527.401,906.052,526.458,906.776,459.866,907.138C393.273,907.5,261.031,907.5,194.439,907.862C127.846,908.224,126.903,908.948,126.07,909.781C125.237,910.614,124.513,911.557,124.151,914.112C123.789,916.667,123.789,920.833,123.789,930.667C123.789,940.5,123.789,956,123.789,974.833C123.789,993.667,123.789,1015.833,123.789,1026.917L123.789,1038" id="L_UI_AUTH_0_0" class="edge-thickness-normal edge-pattern-solid edge-thickness-normal edge-pattern-solid flowchart-link" style=";" data-edge="true" data-et="edge" data-id="L_UI_AUTH_0_0" data-points="W3sieCI6NzYwLjMyMDMxMjUwMDAwMDEsInkiOjE2OH0seyJ4Ijo3NjAuMzIwMzEyNTAwMDAwMSwieSI6MTgzfSx7IngiOjY4OS4zNjk3OTE2NjY2NjY3LCJ5IjoxODN9LHsieCI6Njg5LjM2OTc5MTY2NjY2NjcsInkiOjQzMy41fSx7IngiOjY4OS4zNjk3OTE2NjY2NjY3LCJ5Ijo0NDguNX0seyJ4Ijo1MzAuNTE1NjI1LCJ5Ijo0NDguNX0seyJ4Ijo1MzAuNTE1NjI1LCJ5Ijo3NTl9LHsieCI6NTMwLjUxNTYyNSwieSI6OTA3LjV9LHsieCI6MTIzLjc4OTA2MjUsInkiOjkwNy41fSx7IngiOjEyMy43ODkwNjI1LCJ5Ijo5MjV9LHsieCI6MTIzLjc4OTA2MjUsInkiOjk3MS41fSx7IngiOjEyMy43ODkwNjI1LCJ5IjoxMDQyfV0=" marker-start="url(#my-svg_flowchart-v2-pointStart)" marker-end="url(#my-svg_flowchart-v2-pointEnd)"/><path d="M123.789,1100L123.789,1122" id="L_AUTH_UDB_0_0" class="edge-thickness-normal edge-pattern-solid edge-thickness-normal edge-pattern-solid flowchart-link" style=";" data-edge="true" data-et="edge" data-id="L_AUTH_UDB_0_0" data-points="W3sieCI6MTIzLjc4OTA2MjUsInkiOjEwOTZ9LHsieCI6MTIzLjc4OTA2MjUsInkiOjExMjZ9XQ==" marker-start="url(#my-svg_flowchart-v2-pointStart)" marker-end="url(#my-svg_flowchart-v2-pointEnd)"/><path d="M654.039,724L654.039,726.583C654.039,729.167,654.039,734.333,654.039,740.167C654.039,746,654.039,752.5,654.039,783.417C654.039,814.333,654.039,869.667,654.039,905.083C654.039,940.5,654.039,956,654.039,974.833C654.039,993.667,654.039,1015.833,654.039,1026.917L654.039,1038" id="L_BTSUI_BTSAPI_0_0" class="edge-thickness-normal edge-pattern-solid edge-thickness-normal edge-pattern-solid flowchart-link" style=";" data-edge="true" data-et="edge" data-id="L_BTSUI_BTSAPI_0_0" data-points="W3sieCI6NjU0LjAzOTA2MjUsInkiOjcyMH0seyJ4Ijo2NTQuMDM5MDYyNSwieSI6NzM5LjV9LHsieCI6NjU0LjAzOTA2MjUsInkiOjc1OX0seyJ4Ijo2NTQuMDM5MDYyNSwieSI6OTI1fSx7IngiOjY1NC4wMzkwNjI1LCJ5Ijo5NzEuNX0seyJ4Ijo2NTQuMDM5MDYyNSwieSI6MTA0Mn1d" marker-start="url(#my-svg_flowchart-v2-pointStart)" marker-end="url(#my-svg_flowchart-v2-pointEnd)"/></g><g class="edgeLabels"><g class="edgeLabel"><g class="label" data-id="L_UI_WCORE_0_0" transform="translate(0, 0)"><foreignObject width="0" height="0"><div xmlns="http://www.w3.org/1999/xhtml" class="labelBkg" style="display: table-cell; white-space: nowrap; line-height: 1.5; max-width: 200px; text-align: center;"><span class="edgeLabel"></span></div></foreignObject></g></g><g class="edgeLabel" transform="translate(777.3697916666667, 318)"><g class="label" data-id="L_WCORE_SDR_0_0" transform="translate(-32.7578125, -12)"><foreignObject width="65.515625" height="24"><div xmlns="http://www.w3.org/1999/xhtml" class="labelBkg" style="display: table-cell; white-space: nowrap; line-height: 1.5; max-width: 200px; text-align: center;"><span class="edgeLabel"><p>WebUSB</p></span></div></foreignObject></g></g><g class="edgeLabel"><g class="label" data-id="L_BTS_TRX_0_0" transform="translate(0, 0)"><foreignObject width="0" height="0"><div xmlns="http://www.w3.org/1999/xhtml" class="labelBkg" style="display: table-cell; white-space: nowrap; line-height: 1.5; max-width: 200px; text-align: center;"><span class="edgeLabel"></span></div></foreignObject></g></g><g class="edgeLabel"><g class="label" data-id="L_WCORE_TRX_0_0" transform="translate(0, 0)"><foreignObject width="0" height="0"><div xmlns="http://www.w3.org/1999/xhtml" class="labelBkg" style="display: table-cell; white-space: nowrap; line-height: 1.5; max-width: 200px; text-align: center;"><span class="edgeLabel"></span></div></foreignObject></g></g><g class="edgeLabel" transform="translate(653.75, 1162)"><g class="label" data-id="L_BTSAPI_VTYCTL_0_0" transform="translate(-70.7109375, -12)"><foreignObject width="141.421875" height="24"><div xmlns="http://www.w3.org/1999/xhtml" class="labelBkg" style="display: table-cell; white-space: nowrap; line-height: 1.5; max-width: 200px; text-align: center;"><span class="edgeLabel"><p>apply config / status</p></span></div></foreignObject></g></g><g class="edgeLabel" transform="translate(677.665625, 1403.5)"><g class="label" data-id="L_RTS_BSC_0_0" transform="translate(-58.53125, -12)"><foreignObject width="117.0625" height="24"><div xmlns="http://www.w3.org/1999/xhtml" class="labelBkg" style="display: table-cell; white-space: nowrap; line-height: 1.5; max-width: 200px; text-align: center;"><span class="edgeLabel"><p>TCP (OML/RSL)</p></span></div></foreignObject></g></g><g class="edgeLabel" transform="translate(533.15, 1403.5)"><g class="label" data-id="L_RTS_BSC_2_0" transform="translate(-70.984375, -12)"><foreignObject width="141.96875" height="24"><div xmlns="http://www.w3.org/1999/xhtml" class="labelBkg" style="display: table-cell; white-space: nowrap; line-height: 1.5; max-width: 200px; text-align: center;"><span class="edgeLabel"><p>TCP (control/status)</p></span></div></foreignObject></g></g><g class="edgeLabel" transform="translate(822.18125, 1403.5)"><g class="label" data-id="L_RTS_HLR_0_0" transform="translate(-70.984375, -12)"><foreignObject width="141.96875" height="24"><div xmlns="http://www.w3.org/1999/xhtml" class="labelBkg" style="display: table-cell; white-space: nowrap; line-height: 1.5; max-width: 200px; text-align: center;"><span class="edgeLabel"><p>TCP (control/status)</p></span></div></foreignObject></g></g><g class="edgeLabel" transform="translate(981.8140625000001, 1403.5)"><g class="label" data-id="L_RTS_MGW_0_0" transform="translate(-73.6484375, -12)"><foreignObject width="147.296875" height="24"><div xmlns="http://www.w3.org/1999/xhtml" class="labelBkg" style="display: table-cell; white-space: nowrap; line-height: 1.5; max-width: 200px; text-align: center;"><span class="edgeLabel"><p>UDP (Osmux media)</p></span></div></foreignObject></g></g><g class="edgeLabel" transform="translate(404.6265625, 1403.5)"><g class="label" data-id="L_VTYCTL_BSC_0_0" transform="translate(-42.5390625, -12)"><foreignObject width="85.078125" height="24"><div xmlns="http://www.w3.org/1999/xhtml" class="labelBkg" style="display: table-cell; white-space: nowrap; line-height: 1.5; max-width: 200px; text-align: center;"><span class="edgeLabel"><p>VTY (telnet)</p></span></div></foreignObject></g></g><g class="edgeLabel" transform="translate(304.5484375, 1403.5)"><g class="label" data-id="L_VTYSTAT_OSMO_0_0" transform="translate(-42.5390625, -12)"><foreignObject width="85.078125" height="24"><div xmlns="http://www.w3.org/1999/xhtml" class="labelBkg" style="display: table-cell; white-space: nowrap; line-height: 1.5; max-width: 200px; text-align: center;"><span class="edgeLabel"><p>VTY (telnet)</p></span></div></foreignObject></g></g><g class="edgeLabel" transform="translate(369.875, 1162)"><g class="label" data-id="L_VTYSTAT_TSDBS_0_0" transform="translate(-87.59375, -12)"><foreignObject width="175.1875" height="24"><div xmlns="http://www.w3.org/1999/xhtml" class="labelBkg" style="display: table-cell; white-space: nowrap; line-height: 1.5; max-width: 200px; text-align: center;"><span class="edgeLabel"><p>metrics/events (planned)</p></span></div></foreignObject></g></g><g class="edgeLabel" transform="translate(1054.1875, 842)"><g class="label" data-id="L_BTS_RTS_0_0" transform="translate(-100, -48)"><foreignObject width="200" height="96"><div xmlns="http://www.w3.org/1999/xhtml" class="labelBkg" style="display: table; white-space: break-spaces; line-height: 1.5; max-width: 200px; text-align: center; width: 200px;"><span class="edgeLabel"><p>WebSocket<br />binary: OML/RSL (+ media)<br />text: BSC/HLR control (+ media)</p></span></div></foreignObject></g></g><g class="edgeLabel" transform="translate(530.3515625, 842)"><g class="label" data-id="L_UI_AUTH_0_0" transform="translate(-21.3359375, -12)"><foreignObject width="42.671875" height="24"><div xmlns="http://www.w3.org/1999/xhtml" class="labelBkg" style="display: table-cell; white-space: nowrap; line-height: 1.5; max-width: 200px; text-align: center;"><span class="edgeLabel"><p>REST</p></span></div></foreignObject></g></g><g class="edgeLabel"><g class="label" data-id="L_AUTH_UDB_0_0" transform="translate(0, 0)"><foreignObject width="0" height="0"><div xmlns="http://www.w3.org/1999/xhtml" class="labelBkg" style="display: table-cell; white-space: nowrap; line-height: 1.5; max-width: 200px; text-align: center;"><span class="edgeLabel"></span></div></foreignObject></g></g><g class="edgeLabel" transform="translate(653.875, 842)"><g class="label" data-id="L_BTSUI_BTSAPI_0_0" transform="translate(-21.3359375, -12)"><foreignObject width="42.671875" height="24"><div xmlns="http://www.w3.org/1999/xhtml" class="labelBkg" style="display: table-cell; white-space: nowrap; line-height: 1.5; max-width: 200px; text-align: center;"><span class="edgeLabel"><p>REST</p></span></div></foreignObject></g></g></g></svg>