<svg id="my-svg" width="100%" xmlns="http://www.w3.org/2000/svg" xmlns:xlink="http://www.w3.org/1999/xlink" class="flowchart" style="max-width: 919.312px; background-color: white;" viewBox="4 4 919.3125 894.5" role="graphics-document document" aria-roledescription="flowchart-v2"><style>#my-svg{font-family:"trebuchet ms",verdana,arial,sans-serif;font-size:16px;fill:#333;}@keyframes edge-animation-frame{from{stroke-dashoffset:0;}}@keyframes dash{to{stroke-dashoffset:0;}}#my-svg .edge-animation-slow{stroke-dasharray:9,5!important;stroke-dashoffset:900;animation:dash 50s linear infinite;stroke-linecap:round;}#my-svg .edge-animation-fast{stroke-dasharray:9,5!important;stroke-dashoffset:900;animation:dash 20s linear infinite;stroke-linecap:round;}#my-svg .error-icon{fill:#552222;}#my-svg .error-text{fill:#552222;stroke:#552222;}#my-svg .edge-thickness-normal{stroke-width:1px;}#my-svg .edge-thickness-thick{stroke-width:3.5px;}#my-svg .edge-pattern-solid{stroke-dasharray:0;}#my-svg .edge-thickness-invisible{stroke-width:0;fill:none;}#my-svg .edge-pattern-dashed{stroke-dasharray:3;}#my-svg .edge-pattern-dotted{stroke-dasharray:2;}#my-svg .marker{fill:#333333;stroke:#333333;}#my-svg .marker.cross{stroke:#333333;}#my-svg svg{font-family:"trebuchet ms",verdana,arial,sans-serif;font-size:16px;}#my-svg p{margin:0;}#my-svg .label{font-family:"trebuchet ms",verdana,arial,sans-serif;color:#333;}#my-svg .cluster-label text{fill:#333;}#my-svg .cluster-label span{color:#333;}#my-svg .cluster-label span p{background-color:transparent;}#my-svg .label text,#my-svg span{fill:#333;color:#333;}#my-svg .node rect,#my-svg .node circle,#my-svg .node ellipse,#my-svg .node polygon,#my-svg .node path{fill:#ECECFF;stroke:#9370DB;stroke-width:1px;}#my-svg .rough-node .label text,#my-svg .node .label text,#my-svg .image-shape .label,#my-svg .icon-shape .label{text-anchor:middle;}#my-svg .node .katex path{fill:#000;stroke:#000;stroke-width:1px;}#my-svg .rough-node .label,#my-svg .node .label,#my-svg .image-shape .label,#my-svg .icon-shape .label{text-align:center;}#my-svg .node.clickable{cursor:pointer;}#my-svg .root .anchor path{fill:#333333!important;stroke-width:0;stroke:#333333;}#my-svg .arrowheadPath{fill:#333333;}#my-svg .edgePath .path{stroke:#333333;stroke-width:2.0px;}#my-svg .flowchart-link{stroke:#333333;fill:none;}#my-svg .edgeLabel{background-color:rgba(232,232,232, 0.8);text-align:center;}#my-svg .edgeLabel p{background-color:rgba(232,232,232, 0.8);}#my-svg .edgeLabel rect{opacity:0.5;background-color:rgba(232,232,232, 0.8);fill:rgba(232,232,232, 0.8);}#my-svg .labelBkg{background-color:rgba(232, 232, 232, 0.5);}#my-svg .cluster rect{fill:#ffffde;stroke:#aaaa33;stroke-width:1px;}#my-svg .cluster text{fill:#333;}#my-svg .cluster span{color:#333;}#my-svg div.mermaidTooltip{position:absolute;text-align:center;max-width:200px;padding:2px;font-family:"trebuchet ms",verdana,arial,sans-serif;font-size:12px;background:hsl(80, 100%, 96.2745098039%);border:1px solid #aaaa33;border-radius:2px;pointer-events:none;z-index:100;}#my-svg .flowchartTitleText{text-anchor:middle;font-size:18px;fill:#333;}#my-svg rect.text{fill:none;stroke-width:0;}#my-svg .icon-shape,#my-svg .image-shape{background-color:rgba(232,232,232, 0.8);text-align:center;}#my-svg .icon-shape p,#my-svg .image-shape p{background-color:rgba(232,232,232, 0.8);padding:2px;}#my-svg .icon-shape rect,#my-svg .image-shape rect{opacity:0.5;background-color:rgba(232,232,232, 0.8);fill:rgba(232,232,232, 0.8);}#my-svg .label-icon{display:inline-block;height:1em;overflow:visible;vertical-align:-0.125em;}#my-svg .node .label-icon path{fill:currentColor;stroke:revert;stroke-width:revert;}#my-svg :root{--mermaid-font-family:"trebuchet ms",verdana,arial,sans-serif;}</style><g><marker id="my-svg_flowchart-v2-pointEnd" class="marker flowchart-v2" viewBox="0 0 10 10" refX="5" refY="5" markerUnits="userSpaceOnUse" markerWidth="8" markerHeight="8" orient="auto"><path d="M 0 0 L 10 5 L 0 10 z" class="arrowMarkerPath" style="stroke-width: 1; stroke-dasharray: 1, 0;"/></marker><marker id="my-svg_flowchart-v2-pointStart" class="marker flowchart-v2" viewBox="0 0 10 10" refX="4.5" refY="5" markerUnits="userSpaceOnUse" markerWidth="8" markerHeight="8" orient="auto"><path d="M 0 5 L 10 10 L 10 0 z" class="arrowMarkerPath" style="stroke-width: 1; stroke-dasharray: 1, 0;"/></marker><marker id="my-svg_flowchart-v2-circleEnd" class="marker flowchart-v2" viewBox="0 0 10 10" refX="11" refY="5" markerUnits="userSpaceOnUse" markerWidth="11" markerHeight="11" orient="auto"><circle cx="5" cy="5" r="5" class="arrowMarkerPath" style="stroke-width: 1; stroke-dasharray: 1, 0;"/></marker><marker id="my-svg_flowchart-v2-circleStart" class="marker flowchart-v2" viewBox="0 0 10 10" refX="-1" refY="5" markerUnits="userSpaceOnUse" markerWidth="11" markerHeight="11" orient="auto"><circle cx="5" cy="5" r="5" class="arrowMarkerPath" style="stroke-width: 1; stroke-dasharray: 1, 0;"/></marker><marker id="my-svg_flowchart-v2-crossEnd" class="marker cross flowchart-v2" viewBox="0 0 11 11" refX="12" refY="5.2" markerUnits="userSpaceOnUse" markerWidth="11" markerHeight="11" orient="auto"><path d="M 1,1 l 9,9 M 10,1 l -9,9" class="arrowMarkerPath" style="stroke-width: 2; stroke-dasharray: 1, 0;"/></marker><marker id="my-svg_flowchart-v2-crossStart" class="marker cross flowchart-v2" viewBox="0 0 11 11" refX="-1" refY="5.2" markerUnits="userSpaceOnUse" markerWidth="11" markerHeight="11" orient="auto"><path d="M 1,1 l 9,9 M 10,1 l -9,9" class="arrowMarkerPath" style="stroke-width: 2; stroke-dasharray: 1, 0;"/></marker></g><g class="subgraphs"><g class="subgraph"><g class="cluster" id="ClientsA" data-look="classic"><rect style="" x="12" y="12" width="434.15625" height="129"/><g class="cluster-label" transform="translate(150.96875, 12)"><foreignObject width="156.21875" height="24"><div xmlns="http://www.w3.org/1999/xhtml" style="display: table-cell; white-space: nowrap; line-height: 1.5; max-width: 200px; text-align: center;"><span class="nodeLabel"><p>Web clients (region A)</p></span></div></foreignObject></g></g></g><g class="subgraph"><g class="cluster" id="ClientsB" data-look="classic"><rect style="" x="481.15625" y="12" width="434.15625" height="129"/><g class="cluster-label" transform="translate(619.6796875, 12)"><foreignObject width="157.109375" height="24"><div xmlns="http://www.w3.org/1999/xhtml" style="display: table-cell; white-space: nowrap; line-height: 1.5; max-width: 200px; text-align: center;"><span class="nodeLabel"><p>Web clients (region B)</p></span></div></foreignObject></g></g></g><g class="subgraph"><g class="cluster" id="Backend" data-look="classic"><rect style="" x="25.988541666666663" y="226" width="515.5859375" height="664.5"/><g class="cluster-label" transform="translate(225.96901041666666, 226)"><foreignObject width="115.625" height="24"><div xmlns="http://www.w3.org/1999/xhtml" style="display: table-cell; white-space: nowrap; line-height: 1.5; max-width: 200px; text-align: center;"><span class="nodeLabel"><p>Backend (Linux)</p></span></div></foreignObject></g></g></g><g class="subgraph"><g class="cluster" id="Core" data-look="classic"><rect style="" x="59.30885416666666" y="674.5" width="470.265625" height="204"/><g class="cluster-label" transform="translate(246.86354166666666, 674.5)"><foreignObject width="95.15625" height="24"><div xmlns="http://www.w3.org/1999/xhtml" style="display: table-cell; white-space: nowrap; line-height: 1.5; max-width: 200px; text-align: center;"><span class="nodeLabel"><p>Core network</p></span></div></foreignObject></g></g></g><g class="subgraph"><g class="cluster" id="RegionB" data-look="classic"><rect style="" x="295.16041666666666" y="524.5" width="228.046875" height="105"/><g class="cluster-label" transform="translate(343.80104166666666, 524.5)"><foreignObject width="130.765625" height="24"><div xmlns="http://www.w3.org/1999/xhtml" style="display: table-cell; white-space: nowrap; line-height: 1.5; max-width: 200px; text-align: center;"><span class="nodeLabel"><p>Region B backend</p></span></div></foreignObject></g></g></g><g class="subgraph"><g class="cluster" id="RegionA" data-look="classic"><rect style="" x="37.98854166666666" y="524.5" width="227.171875" height="105"/><g class="cluster-label" transform="translate(87.07447916666666, 524.5)"><foreignObject width="129" height="24"><div xmlns="http://www.w3.org/1999/xhtml" style="display: table-cell; white-space: nowrap; line-height: 1.5; max-width: 200px; text-align: center;"><span class="nodeLabel"><p>Region A backend</p></span></div></foreignObject></g></g></g><g class="subgraph"><g class="cluster" id="OSMOWEB_BE" data-look="classic"><rect style="" x="58.23593749999998" y="272.5" width="268.015625" height="153"/><g class="cluster-label" transform="translate(110.00937499999998, 272.5)"><foreignObject width="164.46875" height="48"><div xmlns="http://www.w3.org/1999/xhtml" style="display: table-cell; white-space: nowrap; line-height: 1.5; max-width: 200px; text-align: center;"><span class="nodeLabel"><p>osmoweb backend<br />(NestJS microservices)</p></span></div></foreignObject></g></g></g></g><g class="nodes"><g class="node default" id="flowchart-BTS_A1-23" transform="translate(119.0390625, 90)"><rect class="basic label-container" style="" x="-95.0390625" y="-39" width="190.078125" height="78"/><g class="label" style="" transform="translate(-65.0390625, -24)"><rect/><foreignObject width="130.078125" height="48"><div xmlns="http://www.w3.org/1999/xhtml" style="display: table-cell; white-space: nowrap; line-height: 1.5; max-width: 200px; text-align: center;"><span class="nodeLabel"><p>osmo-bts (WASM)<br />client A1</p></span></div></foreignObject></g></g><g class="node default" id="flowchart-BTS_A2-24" transform="translate(339.1171875, 90)"><rect class="basic label-container" style="" x="-95.0390625" y="-39" width="190.078125" height="78"/><g class="label" style="" transform="translate(-65.0390625, -24)"><rect/><foreignObject width="130.078125" height="48"><div xmlns="http://www.w3.org/1999/xhtml" style="display: table-cell; white-space: nowrap; line-height: 1.5; max-width: 200px; text-align: center;"><span class="nodeLabel"><p>osmo-bts (WASM)<br />client A2</p></span></div></foreignObject></g></g><g class="node default" id="flowchart-BTS_B1-21" transform="translate(588.1953125, 90)"><rect class="basic label-container" style="" x="-95.0390625" y="-39" width="190.078125" height="78"/><g class="label" style="" transform="translate(-65.0390625, -24)"><rect/><foreignObject width="130.078125" height="48"><div xmlns="http://www.w3.org/1999/xhtml" style="display: table-cell; white-space: nowrap; line-height: 1.5; max-width: 200px; text-align: center;"><span class="nodeLabel"><p>osmo-bts (WASM)<br />client B1</p></span></div></foreignObject></g></g><g class="node default" id="flowchart-BTS_B2-22" transform="translate(808.2734375, 90)"><rect class="basic label-container" style="" x="-95.0390625" y="-39" width="190.078125" height="78"/><g class="label" style="" transform="translate(-65.0390625, -24)"><rect/><foreignObject width="130.078125" height="48"><div xmlns="http://www.w3.org/1999/xhtml" style="display: table-cell; white-space: nowrap; line-height: 1.5; max-width: 200px; text-align: center;"><span class="nodeLabel"><p>osmo-bts (WASM)<br />client B2</p></span></div></foreignObject></g></g><g class="node default" id="flowchart-MSC-3" transform="translate(173.87135416666666, 740.5)"><rect class="basic label-container" style="" x="-66.890625" y="-27" width="133.78125" height="54"/><g class="label" style="" transform="translate(-36.890625, -12)"><rect/><foreignObject width="73.78125" height="24"><div xmlns="http://www.w3.org/1999/xhtml" style="display: table-cell; white-space: nowrap; line-height: 1.5; max-width: 200px; text-align: center;"><span class="nodeLabel"><p>osmo-msc</p></span></div></foreignObject></g></g><g class="node default" id="flowchart-HLR-4" transform="translate(300.66041666666666, 839.5)"><rect class="basic label-container" style="" x="-61.1171875" y="-27" width="122.234375" height="54"/><g class="label" style="" transform="translate(-31.1171875, -12)"><rect/><foreignObject width="62.234375" height="24"><div xmlns="http://www.w3.org/1999/xhtml" style="display: table-cell; white-space: nowrap; line-height: 1.5; max-width: 200px; text-align: center;"><span class="nodeLabel"><p>osmo-hlr</p></span></div></foreignObject></g></g><g class="node default" id="flowchart-STP-5" transform="translate(454.67604166666666, 839.5)"><rect class="basic label-container" style="" x="-62.8984375" y="-27" width="125.796875" height="54"/><g class="label" style="" transform="translate(-32.8984375, -12)"><rect/><foreignObject width="65.796875" height="24"><div xmlns="http://www.w3.org/1999/xhtml" style="display: table-cell; white-space: nowrap; line-height: 1.5; max-width: 200px; text-align: center;"><span class="nodeLabel"><p>osmo-stp</p></span></div></foreignObject></g></g><g class="node default" id="flowchart-MGW-6" transform="translate(140.42604166666666, 839.5)"><rect class="basic label-container" style="" x="-69.1171875" y="-27" width="138.234375" height="54"/><g class="label" style="" transform="translate(-39.1171875, -12)"><rect/><foreignObject width="78.234375" height="24"><div xmlns="http://www.w3.org/1999/xhtml" style="display: table-cell; white-space: nowrap; line-height: 1.5; max-width: 200px; text-align: center;"><span class="nodeLabel"><p>osmo-mgw</p></span></div></foreignObject></g></g><g class="node default" id="flowchart-BSC_B-2" transform="translate(409.18385416666666, 590.5)"><rect class="basic label-container" style="" x="-102.0234375" y="-27" width="204.046875" height="54"/><g class="label" style="" transform="translate(-72.0234375, -12)"><rect/><foreignObject width="144.046875" height="24"><div xmlns="http://www.w3.org/1999/xhtml" style="display: table-cell; white-space: nowrap; line-height: 1.5; max-width: 200px; text-align: center;"><span class="nodeLabel"><p>osmo-bsc (region B)</p></span></div></foreignObject></g></g><g class="node default" id="flowchart-BSC_A-1" transform="translate(151.57447916666666, 590.5)"><rect class="basic label-container" style="" x="-101.5859375" y="-27" width="203.171875" height="54"/><g class="label" style="" transform="translate(-71.5859375, -12)"><rect/><foreignObject width="143.171875" height="24"><div xmlns="http://www.w3.org/1999/xhtml" style="display: table-cell; white-space: nowrap; line-height: 1.5; max-width: 200px; text-align: center;"><span class="nodeLabel"><p>osmo-bsc (region A)</p></span></div></foreignObject></g></g><g class="node default" id="flowchart-RTS-0" transform="translate(192.24374999999998, 374.5)"><rect class="basic label-container" style="" x="-122.0078125" y="-39" width="244.015625" height="78"/><g class="label" style="" transform="translate(-92.0078125, -24)"><rect/><foreignObject width="184.015625" height="48"><div xmlns="http://www.w3.org/1999/xhtml" style="display: table-cell; white-space: nowrap; line-height: 1.5; max-width: 200px; text-align: center;"><span class="nodeLabel"><p>Runtime transport service<br />(WebSocket ⇄ TCP/UDP)</p></span></div></foreignObject></g></g></g><g class="edges edgePaths"><path d="M173.871,771.5L173.871,775C173.871,778.5,173.871,785.5,174.233,789.471C174.595,793.443,175.319,794.386,176.152,795.219C176.986,796.052,177.929,796.776,197.865,797.138C217.801,797.5,256.731,797.5,276.667,797.862C296.603,798.224,297.546,798.948,298.379,799.781C299.213,800.614,299.937,801.557,300.298,803.029C300.66,804.5,300.66,806.5,300.66,807.5L300.66,808.5" id="L_MSC_HLR_0_0" class="edge-thickness-normal edge-pattern-solid edge-thickness-normal edge-pattern-solid flowchart-link" style=";" data-edge="true" data-et="edge" data-id="L_MSC_HLR_0_0" data-points="W3sieCI6MTczLjg3MTM1NDE2NjY2NjY2LCJ5Ijo3NjcuNX0seyJ4IjoxNzMuODcxMzU0MTY2NjY2NjYsInkiOjc5Ny41fSx7IngiOjMwMC42NjA0MTY2NjY2NjY2NiwieSI6Nzk3LjV9LHsieCI6MzAwLjY2MDQxNjY2NjY2NjY2LCJ5Ijo4MTIuNX1d" marker-start="url(#my-svg_flowchart-v2-pointStart)" marker-end="url(#my-svg_flowchart-v2-pointEnd)"/><path d="M207.317,771.5L207.317,772.5C207.317,773.5,207.317,775.5,207.679,776.971C208.041,778.443,208.764,779.386,209.598,780.219C210.431,781.052,211.374,781.776,251.405,782.138C291.436,782.5,370.556,782.5,410.588,782.862C450.619,783.224,451.562,783.948,452.395,784.781C453.228,785.614,453.952,786.557,454.314,790.529C454.676,794.5,454.676,801.5,454.676,805L454.676,808.5" id="L_MSC_STP_0_0" class="edge-thickness-normal edge-pattern-solid edge-thickness-normal edge-pattern-solid flowchart-link" style=";" data-edge="true" data-et="edge" data-id="L_MSC_STP_0_0" data-points="W3sieCI6MjA3LjMxNjY2NjY2NjY2NjY2LCJ5Ijo3NjcuNX0seyJ4IjoyMDcuMzE2NjY2NjY2NjY2NjYsInkiOjc4Mi41fSx7IngiOjQ1NC42NzYwNDE2NjY2NjY2NiwieSI6NzgyLjV9LHsieCI6NDU0LjY3NjA0MTY2NjY2NjY2LCJ5Ijo4MTIuNX1d" marker-start="url(#my-svg_flowchart-v2-pointStart)" marker-end="url(#my-svg_flowchart-v2-pointEnd)"/><path d="M140.426,771.5L140.426,808.5" id="L_MSC_MGW_0_0" class="edge-thickness-normal edge-pattern-solid edge-thickness-normal edge-pattern-solid flowchart-link" style=";" data-edge="true" data-et="edge" data-id="L_MSC_MGW_0_0" data-points="W3sieCI6MTQwLjQyNjA0MTY2NjY2NjY2LCJ5Ijo3NjcuNX0seyJ4IjoxNDAuNDI2MDQxNjY2NjY2NjYsInkiOjgxMi41fV0=" marker-start="url(#my-svg_flowchart-v2-pointStart)" marker-end="url(#my-svg_flowchart-v2-pointEnd)"/><path d="M232.913,417.5L232.913,420.083C232.913,422.667,232.913,427.833,232.913,432.083C232.913,436.333,232.913,439.667,233.275,441.805C233.637,443.943,234.361,444.886,235.194,445.719C236.027,446.552,236.97,447.276,265.153,447.638C293.337,448,348.76,448,376.943,448.362C405.127,448.724,406.069,449.448,406.903,450.281C407.736,451.114,408.46,452.057,408.822,463.195C409.184,474.333,409.184,495.667,409.184,513.417C409.184,531.167,409.184,545.333,409.184,552.417L409.184,559.5" id="L_RTS_BSC_B_0_0" class="edge-thickness-normal edge-pattern-solid edge-thickness-normal edge-pattern-solid flowchart-link" style=";" data-edge="true" data-et="edge" data-id="L_RTS_BSC_B_0_0" data-points="W3sieCI6MjMyLjkxMzAyMDgzMzMzMzM1LCJ5Ijo0MTMuNX0seyJ4IjoyMzIuOTEzMDIwODMzMzMzMzUsInkiOjQzM30seyJ4IjoyMzIuOTEzMDIwODMzMzMzMzUsInkiOjQ0OH0seyJ4Ijo0MDkuMTgzODU0MTY2NjY2NjYsInkiOjQ0OH0seyJ4Ijo0MDkuMTgzODU0MTY2NjY2NjYsInkiOjUxN30seyJ4Ijo0MDkuMTgzODU0MTY2NjY2NjYsInkiOjU2My41fV0=" marker-start="url(#my-svg_flowchart-v2-pointStart)" marker-end="url(#my-svg_flowchart-v2-pointEnd)"/><path d="M151.574,417.5L151.574,420.083C151.574,422.667,151.574,427.833,151.574,444.417C151.574,461,151.574,489,151.574,510.083C151.574,531.167,151.574,545.333,151.574,552.417L151.574,559.5" id="L_RTS_BSC_A_0_0" class="edge-thickness-normal edge-pattern-solid edge-thickness-normal edge-pattern-solid flowchart-link" style=";" data-edge="true" data-et="edge" data-id="L_RTS_BSC_A_0_0" data-points="W3sieCI6MTUxLjU3NDQ3OTE2NjY2NjY2LCJ5Ijo0MTMuNX0seyJ4IjoxNTEuNTc0NDc5MTY2NjY2NjYsInkiOjQzM30seyJ4IjoxNTEuNTc0NDc5MTY2NjY2NjYsInkiOjUxN30seyJ4IjoxNTEuNTc0NDc5MTY2NjY2NjYsInkiOjU2My41fV0=" marker-start="url(#my-svg_flowchart-v2-pointStart)" marker-end="url(#my-svg_flowchart-v2-pointEnd)"/><path d="M409.184,621.5L409.184,624.083C409.184,626.667,409.184,631.833,409.184,636.083C409.184,640.333,409.184,643.667,408.822,645.805C408.46,647.943,407.736,648.886,406.903,649.719C406.069,650.552,405.127,651.276,370.819,651.638C336.512,652,268.84,652,234.533,652.362C200.225,652.724,199.283,653.448,198.449,654.281C197.616,655.114,196.892,656.057,196.53,658.195C196.168,660.333,196.168,663.667,196.168,672.417C196.168,681.167,196.168,695.333,196.168,702.417L196.168,709.5" id="L_BSC_B_MSC_0_0" class="edge-thickness-normal edge-pattern-solid edge-thickness-normal edge-pattern-solid flowchart-link" style=";" data-edge="true" data-et="edge" data-id="L_BSC_B_MSC_0_0" data-points="W3sieCI6NDA5LjE4Mzg1NDE2NjY2NjY2LCJ5Ijo2MTcuNX0seyJ4Ijo0MDkuMTgzODU0MTY2NjY2NjYsInkiOjYzN30seyJ4Ijo0MDkuMTgzODU0MTY2NjY2NjYsInkiOjY1Mn0seyJ4IjoxOTYuMTY4MjI5MTY2NjY2NjYsInkiOjY1Mn0seyJ4IjoxOTYuMTY4MjI5MTY2NjY2NjYsInkiOjY2N30seyJ4IjoxOTYuMTY4MjI5MTY2NjY2NjYsInkiOjcxMy41fV0=" marker-start="url(#my-svg_flowchart-v2-pointStart)" marker-end="url(#my-svg_flowchart-v2-pointEnd)"/><path d="M151.574,621.5L151.574,624.083C151.574,626.667,151.574,631.833,151.574,639.417C151.574,647,151.574,657,151.574,669.083C151.574,681.167,151.574,695.333,151.574,702.417L151.574,709.5" id="L_BSC_A_MSC_0_0" class="edge-thickness-normal edge-pattern-solid edge-thickness-normal edge-pattern-solid flowchart-link" style=";" data-edge="true" data-et="edge" data-id="L_BSC_A_MSC_0_0" data-points="W3sieCI6MTUxLjU3NDQ3OTE2NjY2NjY2LCJ5Ijo2MTcuNX0seyJ4IjoxNTEuNTc0NDc5MTY2NjY2NjYsInkiOjYzN30seyJ4IjoxNTEuNTc0NDc5MTY2NjY2NjYsInkiOjY2N30seyJ4IjoxNTEuNTc0NDc5MTY2NjY2NjYsInkiOjcxMy41fV0=" marker-start="url(#my-svg_flowchart-v2-pointStart)" marker-end="url(#my-svg_flowchart-v2-pointEnd)"/><path d="M808.273,133L808.273,135.583C808.273,138.167,808.273,143.333,808.273,153.833C808.273,164.333,808.273,180.167,807.912,188.555C807.55,196.943,806.826,197.886,805.992,198.719C805.159,199.552,804.216,200.276,714.941,200.638C625.665,201,448.057,201,358.781,201.362C269.506,201.724,268.563,202.448,267.729,203.281C266.896,204.114,266.172,205.057,265.81,207.612C265.448,210.167,265.448,214.333,265.448,224.167C265.448,234,265.448,249.5,265.448,268.333C265.448,287.167,265.448,309.333,265.448,320.417L265.448,331.5" id="L_BTS_B2_RTS_0_0" class="edge-thickness-normal edge-pattern-solid edge-thickness-normal edge-pattern-solid flowchart-link" style=";" data-edge="true" data-et="edge" data-id="L_BTS_B2_RTS_0_0" data-points="W3sieCI6ODA4LjI3MzQzNzUsInkiOjEyOX0seyJ4Ijo4MDguMjczNDM3NSwieSI6MTQ4LjV9LHsieCI6ODA4LjI3MzQzNzUsInkiOjIwMX0seyJ4IjoyNjUuNDQ4NDM3NSwieSI6MjAxfSx7IngiOjI2NS40NDg0Mzc1LCJ5IjoyMTguNX0seyJ4IjoyNjUuNDQ4NDM3NSwieSI6MjY1fSx7IngiOjI2NS40NDg0Mzc1LCJ5IjozMzUuNX1d" marker-start="url(#my-svg_flowchart-v2-pointStart)" marker-end="url(#my-svg_flowchart-v2-pointEnd)"/><path d="M588.195,133L588.195,135.583C588.195,138.167,588.195,143.333,588.195,150.917C588.195,158.5,588.195,168.5,587.833,173.971C587.471,179.443,586.748,180.386,585.914,181.219C585.081,182.052,584.138,182.776,522.575,183.138C461.012,183.5,338.829,183.5,277.737,189.333C216.645,195.167,216.645,206.833,216.645,220.417C216.645,234,216.645,249.5,216.645,268.333C216.645,287.167,216.645,309.333,216.645,320.417L216.645,331.5" id="L_BTS_B1_RTS_0_0" class="edge-thickness-normal edge-pattern-solid edge-thickness-normal edge-pattern-solid flowchart-link" style=";" data-edge="true" data-et="edge" data-id="L_BTS_B1_RTS_0_0" data-points="W3sieCI6NTg4LjE5NTMxMjUsInkiOjEyOX0seyJ4Ijo1ODguMTk1MzEyNSwieSI6MTQ4LjV9LHsieCI6NTg4LjE5NTMxMjUsInkiOjE4My41fSx7IngiOjIxNi42NDUzMTI1LCJ5IjoxODMuNX0seyJ4IjoyMTYuNjQ1MzEyNTAwMDAwMDUsInkiOjIxOC41fSx7IngiOjIxNi42NDUzMTI1MDAwMDAwNSwieSI6MjY1fSx7IngiOjIxNi42NDUzMTI1MDAwMDAwNSwieSI6MzM1LjV9XQ==" marker-start="url(#my-svg_flowchart-v2-pointStart)" marker-end="url(#my-svg_flowchart-v2-pointEnd)"/><path d="M119.039,133L119.039,135.583C119.039,138.167,119.039,143.333,119.039,157.583C119.039,171.833,119.039,195.167,119.039,214.583C119.039,234,119.039,249.5,119.039,268.333C119.039,287.167,119.039,309.333,119.039,320.417L119.039,331.5" id="L_BTS_A1_RTS_0_0" class="edge-thickness-normal edge-pattern-solid edge-thickness-normal edge-pattern-solid flowchart-link" style=";" data-edge="true" data-et="edge" data-id="L_BTS_A1_RTS_0_0" data-points="W3sieCI6MTE5LjAzOTA2MjUsInkiOjEyOX0seyJ4IjoxMTkuMDM5MDYyNSwieSI6MTQ4LjV9LHsieCI6MTE5LjAzOTA2MjUsInkiOjIxOC41fSx7IngiOjExOS4wMzkwNjI1LCJ5IjoyNjV9LHsieCI6MTE5LjAzOTA2MjUsInkiOjMzNS41fV0=" marker-start="url(#my-svg_flowchart-v2-pointStart)" marker-end="url(#my-svg_flowchart-v2-pointEnd)"/><path d="M339.117,133L339.117,135.583C339.117,138.167,339.117,143.333,339.117,148C339.117,152.667,339.117,156.833,338.755,159.388C338.393,161.943,337.669,162.886,336.836,163.719C336.003,164.552,335.06,165.276,307.709,165.638C280.359,166,226.601,166,199.25,166.362C171.899,166.724,170.957,167.448,170.123,168.281C169.29,169.114,168.566,170.057,168.204,178.445C167.842,186.833,167.842,202.667,167.842,218.333C167.842,234,167.842,249.5,167.842,268.333C167.842,287.167,167.842,309.333,167.842,320.417L167.842,331.5" id="L_BTS_A2_RTS_0_0" class="edge-thickness-normal edge-pattern-solid edge-thickness-normal edge-pattern-solid flowchart-link" style=";" data-edge="true" data-et="edge" data-id="L_BTS_A2_RTS_0_0" data-points="W3sieCI6MzM5LjExNzE4NzUsInkiOjEyOX0seyJ4IjozMzkuMTE3MTg3NSwieSI6MTQ4LjV9LHsieCI6MzM5LjExNzE4NzUsInkiOjE2Nn0seyJ4IjoxNjcuODQyMTg3NSwieSI6MTY2fSx7IngiOjE2Ny44NDIxODc1LCJ5IjoyMTguNX0seyJ4IjoxNjcuODQyMTg3NSwieSI6MjY1fSx7IngiOjE2Ny44NDIxODc1LCJ5IjozMzUuNX1d" marker-start="url(#my-svg_flowchart-v2-pointStart)" marker-end="url(#my-svg_flowchart-v2-pointEnd)"/></g><g class="edgeLabels"><g class="edgeLabel"><g class="label" data-id="L_MSC_HLR_0_0" transform="translate(0, 0)"><foreignObject width="0" height="0"><div xmlns="http://www.w3.org/1999/xhtml" class="labelBkg" style="display: table-cell; white-space: nowrap; line-height: 1.5; max-width: 200px; text-align: center;"><span class="edgeLabel"></span></div></foreignObject></g></g><g class="edgeLabel"><g class="label" data-id="L_MSC_STP_0_0" transform="translate(0, 0)"><foreignObject width="0" height="0"><div xmlns="http://www.w3.org/1999/xhtml" class="labelBkg" style="display: table-cell; white-space: nowrap; line-height: 1.5; max-width: 200px; text-align: center;"><span class="edgeLabel"></span></div></foreignObject></g></g><g class="edgeLabel"><g class="label" data-id="L_MSC_MGW_0_0" transform="translate(0, 0)"><foreignObject width="0" height="0"><div xmlns="http://www.w3.org/1999/xhtml" class="labelBkg" style="display: table-cell; white-space: nowrap; line-height: 1.5; max-width: 200px; text-align: center;"><span class="edgeLabel"></span></div></foreignObject></g></g><g class="edgeLabel" transform="translate(408.73072916666666, 475)"><g class="label" data-id="L_RTS_BSC_B_0_0" transform="translate(-54.546875, -12)"><foreignObject width="109.09375" height="24"><div xmlns="http://www.w3.org/1999/xhtml" class="labelBkg" style="display: table-cell; white-space: nowrap; line-height: 1.5; max-width: 200px; text-align: center;"><span class="edgeLabel"><p>Region B traffic</p></span></div></foreignObject></g></g><g class="edgeLabel" transform="translate(151.23854166666666, 475)"><g class="label" data-id="L_RTS_BSC_A_0_0" transform="translate(-53.6640625, -12)"><foreignObject width="107.328125" height="24"><div xmlns="http://www.w3.org/1999/xhtml" class="labelBkg" style="display: table-cell; white-space: nowrap; line-height: 1.5; max-width: 200px; text-align: center;"><span class="edgeLabel"><p>Region A traffic</p></span></div></foreignObject></g></g><g class="edgeLabel"><g class="label" data-id="L_BSC_B_MSC_0_0" transform="translate(0, 0)"><foreignObject width="0" height="0"><div xmlns="http://www.w3.org/1999/xhtml" class="labelBkg" style="display: table-cell; white-space: nowrap; line-height: 1.5; max-width: 200px; text-align: center;"><span class="edgeLabel"></span></div></foreignObject></g></g><g class="edgeLabel"><g class="label" data-id="L_BSC_A_MSC_0_0" transform="translate(0, 0)"><foreignObject width="0" height="0"><div xmlns="http://www.w3.org/1999/xhtml" class="labelBkg" style="display: table-cell; white-space: nowrap; line-height: 1.5; max-width: 200px; text-align: center;"><span class="edgeLabel"></span></div></foreignObject></g></g><g class="edgeLabel"><g class="label" data-id="L_BTS_B2_RTS_0_0" transform="translate(0, 0)"><foreignObject width="0" height="0"><div xmlns="http://www.w3.org/1999/xhtml" class="labelBkg" style="display: table-cell; white-space: nowrap; line-height: 1.5; max-width: 200px; text-align: center;"><span class="edgeLabel"></span></div></foreignObject></g></g><g class="edgeLabel"><g class="label" data-id="L_BTS_B1_RTS_0_0" transform="translate(0, 0)"><foreignObject width="0" height="0"><div xmlns="http://www.w3.org/1999/xhtml" class="labelBkg" style="display: table-cell; white-space: nowrap; line-height: 1.5; max-width: 200px; text-align: center;"><span class="edgeLabel"></span></div></foreignObject></g></g><g class="edgeLabel"><g class="label" data-id="L_BTS_A1_RTS_0_0" transform="translate(0, 0)"><foreignObject width="0" height="0"><div xmlns="http://www.w3.org/1999/xhtml" class="labelBkg" style="display: table-cell; white-space: nowrap; line-height: 1.5; max-width: 200px; text-align: center;"><span class="edgeLabel"></span></div></foreignObject></g></g><g class="edgeLabel"><g class="label" data-id="L_BTS_A2_RTS_0_0" transform="translate(0, 0)"><foreignObject width="0" height="0"><div xmlns="http://www.w3.org/1999/xhtml" class="labelBkg" style="display: table-cell; white-space: nowrap; line-height: 1.5; max-width: 200px; text-align: center;"><span class="edgeLabel"></span></div></foreignObject></g></g></g></svg>